<svg xmlns="http://www.w3.org/2000/svg" width="1248.0" height="984.0" viewBox="0 0 1248.0 984.0">
<rect width="100%" height="100%" fill="#FFFFFF"/>
<path d="M 0 0 L 0 327 L 229 327 L 230 326 L 230 325 L 232 323 L 232 322 L 234 320 L 234 319 L 236 317 L 236 316 L 239 313 L 239 312 L 241 310 L 241 309 L 243 307 L 243 306 L 245 304 L 245 303 L 247 301 L 247 300 L 250 297 L 250 296 L 252 294 L 252 293 L 254 291 L 254 290 L 256 288 L 256 287 L 258 285 L 258 284 L 261 281 L 261 280 L 263 278 L 263 277 L 265 275 L 265 274 L 267 272 L 267 271 L 269 269 L 269 268 L 272 265 L 272 264 L 274 262 L 274 261 L 276 259 L 276 258 L 278 256 L 278 255 L 281 252 L 281 251 L 283 249 L 283 248 L 285 246 L 285 245 L 287 243 L 287 242 L 289 240 L 289 239 L 292 236 L 292 235 L 294 233 L 294 232 L 296 230 L 296 229 L 298 227 L 298 226 L 300 224 L 300 223 L 303 220 L 303 219 L 305 217 L 305 216 L 307 214 L 307 213 L 309 211 L 309 210 L 310 209 L 311 209 L 313 211 L 313 212 L 315 214 L 315 215 L 317 217 L 317 218 L 320 221 L 320 222 L 322 224 L 322 225 L 324 227 L 324 228 L 326 230 L 326 231 L 328 233 L 328 234 L 330 236 L 330 237 L 332 239 L 332 240 L 334 242 L 334 243 L 336 245 L 336 246 L 338 248 L 338 249 L 341 252 L 341 253 L 343 255 L 343 256 L 345 258 L 345 259 L 347 261 L 347 262 L 349 264 L 349 265 L 351 267 L 351 268 L 353 270 L 353 271 L 355 273 L 355 274 L 357 276 L 357 277 L 359 279 L 359 280 L 362 283 L 362 284 L 364 286 L 364 287 L 366 289 L 366 290 L 368 292 L 368 293 L 370 295 L 370 296 L 372 298 L 372 299 L 374 301 L 374 302 L 376 304 L 376 305 L 378 307 L 378 308 L 380 310 L 380 311 L 382 313 L 382 314 L 385 317 L 385 318 L 387 320 L 387 321 L 389 323 L 389 324 L 391 326 L 391 327 L 469 327 L 468 326 L 468 325 L 466 323 L 466 322 L 463 319 L 463 318 L 461 316 L 461 315 L 459 313 L 459 312 L 456 309 L 456 308 L 454 306 L 454 305 L 452 303 L 452 302 L 449 299 L 449 298 L 447 296 L 447 295 L 445 293 L 445 292 L 443 290 L 443 289 L 440 286 L 440 285 L 438 283 L 438 282 L 436 280 L 436 279 L 433 276 L 433 275 L 431 273 L 431 272 L 429 270 L 429 269 L 426 266 L 426 265 L 424 263 L 424 262 L 422 260 L 422 259 L 419 256 L 419 255 L 417 253 L 417 252 L 415 250 L 415 249 L 413 247 L 413 246 L 410 243 L 410 242 L 408 240 L 408 239 L 406 237 L 406 236 L 403 233 L 403 232 L 401 230 L 401 229 L 399 227 L 399 226 L 396 223 L 396 222 L 394 220 L 394 219 L 392 217 L 392 216 L 389 213 L 389 212 L 387 210 L 387 209 L 385 207 L 385 206 L 383 204 L 383 203 L 380 200 L 380 199 L 378 197 L 378 196 L 376 194 L 376 193 L 373 190 L 373 189 L 371 187 L 371 186 L 369 184 L 369 183 L 366 180 L 366 179 L 364 177 L 364 176 L 362 174 L 362 173 L 359 170 L 359 169 L 357 167 L 357 166 L 355 164 L 355 163 L 352 160 L 352 159 L 351 158 L 353 156 L 353 155 L 355 153 L 355 152 L 357 150 L 357 149 L 360 146 L 360 145 L 362 143 L 362 142 L 365 139 L 365 138 L 367 136 L 367 135 L 369 133 L 369 132 L 372 129 L 372 128 L 374 126 L 374 125 L 377 122 L 377 121 L 379 119 L 379 118 L 381 116 L 381 115 L 384 112 L 384 111 L 386 109 L 386 108 L 389 105 L 389 104 L 391 102 L 391 101 L 393 99 L 393 98 L 396 95 L 396 94 L 398 92 L 398 91 L 401 88 L 401 87 L 403 85 L 403 84 L 406 81 L 406 80 L 408 78 L 408 77 L 410 75 L 410 74 L 413 71 L 413 70 L 415 68 L 415 67 L 418 64 L 418 63 L 420 61 L 420 60 L 422 58 L 422 57 L 425 54 L 425 53 L 427 51 L 427 50 L 430 47 L 430 46 L 432 44 L 432 43 L 434 41 L 434 40 L 437 37 L 437 36 L 439 34 L 439 33 L 442 30 L 442 29 L 444 27 L 444 26 L 446 24 L 446 23 L 449 20 L 449 19 L 451 17 L 451 16 L 454 13 L 454 12 L 456 10 L 456 9 L 458 7 L 458 6 L 461 3 L 461 2 L 463 0 L 385 0 L 384 1 L 384 2 L 382 4 L 382 5 L 380 7 L 380 8 L 378 10 L 378 11 L 375 14 L 375 15 L 373 17 L 373 18 L 371 20 L 371 21 L 369 23 L 369 24 L 367 26 L 367 27 L 364 30 L 364 31 L 362 33 L 362 34 L 360 36 L 360 37 L 358 39 L 358 40 L 355 43 L 355 44 L 353 46 L 353 47 L 351 49 L 351 50 L 349 52 L 349 53 L 347 55 L 347 56 L 344 59 L 344 60 L 342 62 L 342 63 L 340 65 L 340 66 L 338 68 L 338 69 L 335 72 L 335 73 L 333 75 L 333 76 L 331 78 L 331 79 L 329 81 L 329 82 L 327 84 L 327 85 L 324 88 L 324 89 L 322 91 L 322 92 L 320 94 L 320 95 L 318 97 L 318 98 L 315 101 L 315 102 L 313 104 L 313 105 L 312 106 L 311 106 L 310 105 L 310 104 L 308 102 L 308 101 L 306 99 L 306 98 L 304 96 L 304 95 L 302 93 L 302 92 L 300 90 L 300 89 L 297 86 L 297 85 L 295 83 L 295 82 L 293 80 L 293 79 L 291 77 L 291 76 L 289 74 L 289 73 L 287 71 L 287 70 L 285 68 L 285 67 L 283 65 L 283 64 L 280 61 L 280 60 L 278 58 L 278 57 L 276 55 L 276 54 L 274 52 L 274 51 L 272 49 L 272 48 L 270 46 L 270 45 L 268 43 L 268 42 L 265 39 L 265 38 L 263 36 L 263 35 L 261 33 L 261 32 L 259 30 L 259 29 L 257 27 L 257 26 L 255 24 L 255 23 L 253 21 L 253 20 L 251 18 L 251 17 L 248 14 L 248 13 L 246 11 L 246 10 L 244 8 L 244 7 L 242 5 L 242 4 L 240 2 L 240 1 L 239 0 L 161 0 L 162 1 L 162 2 L 164 4 L 164 5 L 166 7 L 166 8 L 169 11 L 169 12 L 171 14 L 171 15 L 173 17 L 173 18 L 176 21 L 176 22 L 178 24 L 178 25 L 180 27 L 180 28 L 183 31 L 183 32 L 185 34 L 185 35 L 187 37 L 187 38 L 190 41 L 190 42 L 192 44 L 192 45 L 194 47 L 194 48 L 197 51 L 197 52 L 199 54 L 199 55 L 201 57 L 201 58 L 204 61 L 204 62 L 206 64 L 206 65 L 208 67 L 208 68 L 211 71 L 211 72 L 213 74 L 213 75 L 215 77 L 215 78 L 218 81 L 218 82 L 220 84 L 220 85 L 222 87 L 222 88 L 225 91 L 225 92 L 227 94 L 227 95 L 229 97 L 229 98 L 232 101 L 232 102 L 234 104 L 234 105 L 237 108 L 237 109 L 239 111 L 239 112 L 241 114 L 241 115 L 244 118 L 244 119 L 246 121 L 246 122 L 248 124 L 248 125 L 251 128 L 251 129 L 253 131 L 253 132 L 255 134 L 255 135 L 258 138 L 258 139 L 260 141 L 260 142 L 262 144 L 262 145 L 265 148 L 265 149 L 267 151 L 267 152 L 269 154 L 269 155 L 271 157 L 271 160 L 268 163 L 268 164 L 266 166 L 266 167 L 264 169 L 264 170 L 261 173 L 261 174 L 259 176 L 259 177 L 257 179 L 257 180 L 254 183 L 254 184 L 252 186 L 252 187 L 250 189 L 250 190 L 247 193 L 247 194 L 245 196 L 245 197 L 243 199 L 243 200 L 240 203 L 240 204 L 238 206 L 238 207 L 236 209 L 236 210 L 233 213 L 233 214 L 231 216 L 231 217 L 229 219 L 229 220 L 226 223 L 226 224 L 224 226 L 224 227 L 222 229 L 222 230 L 219 233 L 219 234 L 217 236 L 217 237 L 215 239 L 215 240 L 212 243 L 212 244 L 210 246 L 210 247 L 208 249 L 208 250 L 206 252 L 206 253 L 203 256 L 203 257 L 201 259 L 201 260 L 197 264 L 67 264 L 66 263 L 66 0 Z" fill="#000000" fill-rule="evenodd" transform="translate(131,261) scale(1.0)"/>
<path d="M 425 1 L 425 57 L 435 57 L 435 19 L 436 18 L 438 20 L 438 21 L 440 23 L 440 24 L 442 26 L 442 27 L 445 30 L 445 31 L 447 33 L 447 34 L 449 36 L 449 37 L 451 39 L 451 40 L 453 42 L 453 43 L 455 45 L 455 46 L 457 48 L 457 49 L 459 51 L 459 52 L 461 54 L 461 55 L 463 57 L 473 57 L 473 1 L 463 1 L 463 37 L 462 38 L 460 36 L 460 35 L 458 33 L 458 32 L 456 30 L 456 29 L 454 27 L 454 26 L 452 24 L 452 23 L 450 21 L 450 20 L 448 18 L 448 17 L 446 15 L 446 14 L 444 12 L 444 11 L 442 9 L 442 8 L 440 6 L 440 5 L 438 3 L 438 2 L 437 1 Z M 369 1 L 369 3 L 368 4 L 368 5 L 367 6 L 367 8 L 366 9 L 366 11 L 365 12 L 365 13 L 364 14 L 364 16 L 363 17 L 363 18 L 362 19 L 362 21 L 361 22 L 361 24 L 360 25 L 360 26 L 359 27 L 359 29 L 358 30 L 358 31 L 357 32 L 357 34 L 356 35 L 356 37 L 355 38 L 355 39 L 354 40 L 354 42 L 353 43 L 353 45 L 352 46 L 352 47 L 351 48 L 351 50 L 350 51 L 350 52 L 349 53 L 349 55 L 348 56 L 348 57 L 358 57 L 359 56 L 359 54 L 360 53 L 360 51 L 361 50 L 361 49 L 362 48 L 362 46 L 363 45 L 388 45 L 390 47 L 390 49 L 391 50 L 391 51 L 392 52 L 392 54 L 393 55 L 393 57 L 404 57 L 404 56 L 403 55 L 403 54 L 402 53 L 402 51 L 401 50 L 401 48 L 400 47 L 400 46 L 399 45 L 399 43 L 398 42 L 398 40 L 397 39 L 397 38 L 396 37 L 396 35 L 395 34 L 395 33 L 394 32 L 394 30 L 393 29 L 393 27 L 392 26 L 392 25 L 391 24 L 391 22 L 390 21 L 390 20 L 389 19 L 389 17 L 388 16 L 388 14 L 387 13 L 387 12 L 386 11 L 386 9 L 385 8 L 385 7 L 384 6 L 384 4 L 383 3 L 383 1 Z M 375 12 L 376 11 L 377 12 L 377 13 L 378 14 L 378 16 L 379 17 L 379 19 L 380 20 L 380 21 L 381 22 L 381 24 L 382 25 L 382 27 L 383 28 L 383 30 L 384 31 L 384 32 L 385 33 L 385 35 L 384 36 L 368 36 L 367 35 L 367 32 L 368 31 L 368 30 L 369 29 L 369 27 L 370 26 L 370 24 L 371 23 L 371 22 L 372 21 L 372 19 L 373 18 L 373 16 L 374 15 L 374 14 L 375 13 Z M 317 1 L 317 57 L 327 57 L 327 1 Z M 245 1 L 245 57 L 265 57 L 266 56 L 271 56 L 272 55 L 275 55 L 276 54 L 277 54 L 278 53 L 279 53 L 280 52 L 281 52 L 283 50 L 284 50 L 288 46 L 288 45 L 290 43 L 290 42 L 291 41 L 291 40 L 292 39 L 292 36 L 293 35 L 293 22 L 292 21 L 292 19 L 291 18 L 291 16 L 290 15 L 290 14 L 288 12 L 288 11 L 285 8 L 284 8 L 282 6 L 281 6 L 280 5 L 279 5 L 278 4 L 277 4 L 276 3 L 274 3 L 273 2 L 269 2 L 268 1 Z M 255 12 L 256 11 L 269 11 L 270 12 L 271 12 L 272 13 L 273 13 L 274 14 L 275 14 L 280 19 L 280 20 L 281 21 L 281 22 L 282 23 L 282 26 L 283 27 L 283 31 L 282 32 L 282 35 L 281 36 L 281 37 L 280 38 L 280 39 L 275 44 L 274 44 L 273 45 L 272 45 L 271 46 L 268 46 L 267 47 L 256 47 L 255 46 Z M 208 1 L 208 57 L 218 57 L 218 1 Z M 81 1 L 81 57 L 107 57 L 108 56 L 113 56 L 114 55 L 115 55 L 116 54 L 117 54 L 118 53 L 119 53 L 122 50 L 122 49 L 123 48 L 123 47 L 124 46 L 124 37 L 123 36 L 123 35 L 122 34 L 122 33 L 121 32 L 120 32 L 118 30 L 117 30 L 116 29 L 115 29 L 114 28 L 114 27 L 115 26 L 116 26 L 120 22 L 120 21 L 121 20 L 121 18 L 122 17 L 122 14 L 121 13 L 121 10 L 120 9 L 120 8 L 116 4 L 115 4 L 114 3 L 113 3 L 112 2 L 109 2 L 108 1 Z M 91 34 L 92 33 L 108 33 L 109 34 L 111 34 L 113 36 L 113 37 L 114 38 L 114 43 L 111 46 L 110 46 L 109 47 L 92 47 L 91 46 Z M 91 11 L 92 10 L 105 10 L 106 11 L 108 11 L 111 14 L 111 15 L 112 16 L 112 18 L 111 19 L 111 20 L 108 23 L 107 23 L 106 24 L 92 24 L 91 23 Z M 160 0 L 159 1 L 156 1 L 155 2 L 154 2 L 153 3 L 152 3 L 147 8 L 147 9 L 146 10 L 146 11 L 145 12 L 145 21 L 146 22 L 146 23 L 147 24 L 147 25 L 150 28 L 151 28 L 153 30 L 154 30 L 155 31 L 157 31 L 158 32 L 159 32 L 160 33 L 162 33 L 163 34 L 165 34 L 166 35 L 168 35 L 169 36 L 170 36 L 174 40 L 174 43 L 173 44 L 173 45 L 171 47 L 170 47 L 169 48 L 160 48 L 159 47 L 158 47 L 157 46 L 156 46 L 152 42 L 152 41 L 150 41 L 149 42 L 148 42 L 146 44 L 145 44 L 144 45 L 143 45 L 143 46 L 144 47 L 144 48 L 146 50 L 146 51 L 147 52 L 148 52 L 150 54 L 151 54 L 152 55 L 153 55 L 154 56 L 156 56 L 157 57 L 163 57 L 164 58 L 165 57 L 171 57 L 172 56 L 174 56 L 175 55 L 176 55 L 177 54 L 178 54 L 182 50 L 182 49 L 183 48 L 183 46 L 184 45 L 184 37 L 183 36 L 183 34 L 177 28 L 176 28 L 175 27 L 174 27 L 173 26 L 171 26 L 170 25 L 168 25 L 167 24 L 165 24 L 164 23 L 162 23 L 161 22 L 160 22 L 159 21 L 158 21 L 155 18 L 155 14 L 159 10 L 160 10 L 161 9 L 166 9 L 167 10 L 168 10 L 169 11 L 170 11 L 174 15 L 174 16 L 175 16 L 176 15 L 177 15 L 178 14 L 179 14 L 181 12 L 182 12 L 183 11 L 182 10 L 182 9 L 176 3 L 175 3 L 174 2 L 173 2 L 172 1 L 169 1 L 168 0 Z M 25 0 L 24 1 L 20 1 L 19 2 L 18 2 L 17 3 L 16 3 L 15 4 L 14 4 L 13 5 L 12 5 L 4 13 L 4 14 L 3 15 L 3 16 L 2 17 L 2 18 L 1 19 L 1 22 L 0 23 L 0 35 L 1 36 L 1 39 L 2 40 L 2 41 L 3 42 L 3 43 L 5 45 L 5 46 L 12 53 L 13 53 L 14 54 L 15 54 L 16 55 L 17 55 L 18 56 L 20 56 L 21 57 L 27 57 L 28 58 L 29 58 L 30 57 L 36 57 L 37 56 L 39 56 L 40 55 L 41 55 L 42 54 L 43 54 L 44 53 L 45 53 L 53 45 L 53 44 L 54 43 L 54 42 L 55 41 L 55 40 L 56 39 L 56 37 L 57 36 L 57 31 L 58 30 L 58 28 L 57 27 L 57 21 L 56 20 L 56 18 L 55 17 L 55 16 L 54 15 L 54 14 L 52 12 L 52 11 L 47 6 L 46 6 L 44 4 L 43 4 L 42 3 L 41 3 L 40 2 L 38 2 L 37 1 L 34 1 L 33 0 Z M 24 11 L 25 10 L 32 10 L 33 11 L 35 11 L 36 12 L 37 12 L 38 13 L 39 13 L 44 18 L 44 19 L 45 20 L 45 21 L 46 22 L 46 24 L 47 25 L 47 33 L 46 34 L 46 36 L 45 37 L 45 38 L 43 40 L 43 41 L 41 43 L 40 43 L 37 46 L 35 46 L 34 47 L 31 47 L 30 48 L 27 48 L 26 47 L 23 47 L 22 46 L 21 46 L 20 45 L 19 45 L 13 39 L 13 38 L 12 37 L 12 36 L 11 35 L 11 32 L 10 31 L 10 26 L 11 25 L 11 23 L 12 22 L 12 21 L 13 20 L 13 19 L 15 17 L 15 16 L 16 15 L 17 15 L 20 12 L 21 12 L 22 11 Z" fill="#000000" fill-rule="evenodd" transform="translate(120,623) scale(1.0)"/>
<path d="M 127 1 L 127 57 L 153 57 L 154 56 L 158 56 L 159 55 L 161 55 L 162 54 L 163 54 L 164 53 L 165 53 L 167 51 L 167 50 L 169 48 L 169 46 L 170 45 L 170 38 L 169 37 L 169 35 L 164 30 L 163 30 L 162 29 L 161 29 L 160 28 L 160 27 L 161 26 L 162 26 L 166 22 L 166 21 L 167 20 L 167 11 L 166 10 L 166 9 L 165 8 L 165 7 L 162 4 L 161 4 L 160 3 L 159 3 L 158 2 L 155 2 L 154 1 Z M 137 34 L 138 33 L 154 33 L 155 34 L 156 34 L 160 38 L 160 42 L 159 43 L 159 44 L 157 46 L 156 46 L 155 47 L 138 47 L 137 46 Z M 137 11 L 138 10 L 150 10 L 151 11 L 153 11 L 154 12 L 155 12 L 157 14 L 157 20 L 154 23 L 153 23 L 152 24 L 138 24 L 137 23 Z M 72 1 L 71 2 L 71 3 L 70 4 L 70 6 L 69 7 L 69 9 L 68 10 L 68 11 L 67 12 L 67 14 L 66 15 L 66 16 L 65 17 L 65 19 L 64 20 L 64 22 L 63 23 L 63 24 L 62 25 L 62 27 L 61 28 L 61 30 L 60 31 L 60 32 L 59 33 L 59 35 L 58 36 L 58 37 L 57 38 L 57 40 L 56 41 L 56 43 L 55 44 L 55 45 L 54 46 L 54 48 L 53 49 L 53 50 L 52 51 L 52 53 L 51 54 L 51 56 L 50 57 L 60 57 L 61 56 L 61 55 L 62 54 L 62 52 L 63 51 L 63 49 L 64 48 L 64 47 L 66 45 L 91 45 L 92 46 L 92 48 L 93 49 L 93 51 L 94 52 L 94 53 L 95 54 L 95 56 L 96 57 L 106 57 L 106 55 L 105 54 L 105 53 L 104 52 L 104 50 L 103 49 L 103 48 L 102 47 L 102 45 L 101 44 L 101 42 L 100 41 L 100 40 L 99 39 L 99 37 L 98 36 L 98 35 L 97 34 L 97 32 L 96 31 L 96 29 L 95 28 L 95 27 L 94 26 L 94 24 L 93 23 L 93 22 L 92 21 L 92 19 L 91 18 L 91 16 L 90 15 L 90 14 L 89 13 L 89 11 L 88 10 L 88 8 L 87 7 L 87 6 L 86 5 L 86 3 L 85 2 L 85 1 Z M 77 12 L 78 11 L 79 12 L 79 13 L 80 14 L 80 15 L 81 16 L 81 18 L 82 19 L 82 21 L 83 22 L 83 24 L 84 25 L 84 26 L 85 27 L 85 29 L 86 30 L 86 32 L 87 33 L 87 35 L 86 36 L 70 36 L 69 35 L 69 33 L 70 32 L 70 30 L 71 29 L 71 28 L 72 27 L 72 25 L 73 24 L 73 22 L 74 21 L 74 20 L 75 19 L 75 17 L 76 16 L 76 14 L 77 13 Z M 0 1 L 0 57 L 35 57 L 35 47 L 12 47 L 11 46 L 11 1 Z M 206 0 L 205 1 L 202 1 L 201 2 L 200 2 L 199 3 L 198 3 L 192 9 L 192 11 L 191 12 L 191 21 L 192 22 L 192 24 L 197 29 L 198 29 L 199 30 L 200 30 L 201 31 L 202 31 L 203 32 L 205 32 L 206 33 L 208 33 L 209 34 L 211 34 L 212 35 L 214 35 L 215 36 L 216 36 L 219 39 L 219 40 L 220 41 L 220 42 L 219 43 L 219 44 L 216 47 L 215 47 L 214 48 L 205 48 L 204 47 L 203 47 L 198 42 L 198 41 L 196 41 L 195 42 L 194 42 L 193 43 L 192 43 L 191 44 L 190 44 L 189 45 L 188 45 L 189 46 L 189 47 L 191 49 L 191 50 L 194 53 L 195 53 L 197 55 L 198 55 L 199 56 L 201 56 L 202 57 L 209 57 L 210 58 L 211 57 L 217 57 L 218 56 L 220 56 L 221 55 L 222 55 L 224 53 L 225 53 L 227 51 L 227 50 L 228 49 L 228 48 L 229 47 L 229 45 L 230 44 L 230 37 L 229 36 L 229 35 L 228 34 L 228 33 L 224 29 L 223 29 L 222 28 L 221 28 L 220 27 L 219 27 L 218 26 L 217 26 L 216 25 L 214 25 L 213 24 L 211 24 L 210 23 L 208 23 L 207 22 L 205 22 L 201 18 L 201 14 L 202 13 L 202 12 L 203 11 L 204 11 L 205 10 L 206 10 L 207 9 L 211 9 L 212 10 L 214 10 L 215 11 L 216 11 L 220 15 L 220 16 L 221 16 L 222 15 L 223 15 L 225 13 L 226 13 L 227 12 L 228 12 L 229 11 L 228 10 L 228 9 L 222 3 L 221 3 L 220 2 L 218 2 L 217 1 L 214 1 L 213 0 Z" fill="#000000" fill-rule="evenodd" transform="translate(241.5,704) scale(1.0)"/>
<path d="M 150 593 L 150 595 L 149 596 L 149 606 L 148 607 L 148 617 L 147 618 L 147 629 L 146 630 L 146 641 L 145 642 L 145 653 L 144 654 L 144 664 L 143 665 L 143 676 L 142 677 L 142 688 L 141 689 L 141 699 L 140 700 L 140 711 L 139 712 L 139 723 L 138 724 L 138 734 L 137 735 L 137 739 L 138 740 L 138 741 L 140 743 L 148 743 L 149 742 L 153 742 L 154 741 L 157 741 L 158 740 L 162 740 L 163 739 L 167 739 L 168 738 L 171 738 L 172 737 L 176 737 L 177 736 L 180 736 L 181 735 L 185 735 L 186 734 L 190 734 L 191 733 L 195 733 L 196 732 L 200 732 L 201 731 L 204 731 L 205 730 L 209 730 L 210 729 L 213 729 L 214 728 L 216 728 L 218 726 L 218 725 L 219 724 L 219 722 L 218 721 L 218 720 L 217 719 L 217 718 L 216 717 L 216 716 L 215 715 L 215 714 L 214 713 L 214 712 L 213 711 L 213 710 L 212 709 L 212 708 L 211 707 L 211 706 L 210 705 L 210 704 L 209 703 L 209 702 L 208 701 L 208 700 L 207 699 L 207 698 L 205 696 L 205 695 L 204 694 L 204 693 L 203 692 L 203 691 L 202 690 L 202 689 L 201 688 L 201 687 L 200 686 L 200 685 L 199 684 L 199 683 L 198 682 L 198 681 L 197 680 L 197 679 L 196 678 L 196 677 L 195 676 L 195 675 L 194 674 L 194 673 L 192 671 L 192 670 L 191 669 L 191 668 L 190 667 L 190 666 L 189 665 L 189 664 L 188 663 L 188 662 L 187 661 L 187 660 L 186 659 L 186 658 L 185 657 L 185 656 L 184 655 L 184 654 L 183 653 L 183 652 L 182 651 L 182 650 L 180 648 L 180 647 L 179 646 L 179 645 L 178 644 L 178 643 L 177 642 L 177 641 L 176 640 L 176 639 L 175 638 L 175 637 L 174 636 L 174 635 L 173 634 L 173 633 L 172 632 L 172 631 L 171 630 L 171 629 L 170 628 L 170 627 L 168 625 L 168 624 L 167 623 L 167 622 L 166 621 L 166 620 L 165 619 L 165 618 L 164 617 L 164 616 L 163 615 L 163 614 L 162 613 L 162 612 L 161 611 L 161 610 L 160 609 L 160 608 L 159 607 L 159 606 L 158 605 L 158 604 L 157 603 L 157 602 L 155 600 L 155 599 L 154 598 L 154 597 L 153 596 L 153 595 L 151 593 Z M 117 593 L 116 594 L 116 595 L 114 597 L 114 598 L 112 600 L 112 601 L 110 603 L 110 604 L 108 606 L 108 607 L 107 608 L 107 609 L 105 611 L 105 612 L 103 614 L 103 615 L 101 617 L 101 618 L 99 620 L 99 621 L 97 623 L 97 624 L 95 626 L 95 627 L 93 629 L 93 630 L 91 632 L 91 633 L 89 635 L 89 636 L 87 638 L 87 639 L 85 641 L 85 642 L 83 644 L 83 645 L 81 647 L 81 648 L 79 650 L 79 651 L 77 653 L 77 654 L 75 656 L 75 657 L 73 659 L 73 660 L 71 662 L 71 663 L 69 665 L 69 666 L 67 668 L 67 669 L 66 670 L 66 671 L 64 673 L 64 674 L 62 676 L 62 677 L 60 679 L 60 680 L 58 682 L 58 683 L 56 685 L 56 686 L 54 688 L 54 689 L 52 691 L 52 692 L 50 694 L 50 695 L 48 697 L 48 698 L 47 699 L 47 702 L 50 705 L 52 705 L 53 706 L 55 706 L 56 707 L 59 707 L 60 708 L 62 708 L 63 709 L 65 709 L 66 710 L 69 710 L 70 711 L 72 711 L 73 712 L 76 712 L 77 713 L 79 713 L 80 714 L 82 714 L 83 715 L 85 715 L 86 716 L 89 716 L 90 717 L 92 717 L 93 718 L 96 718 L 97 719 L 99 719 L 100 720 L 102 720 L 103 721 L 106 721 L 107 722 L 109 722 L 110 723 L 113 723 L 114 722 L 115 722 L 116 721 L 116 720 L 117 719 L 117 674 L 118 673 L 118 621 L 119 620 L 119 593 Z M 99 570 L 98 571 L 95 571 L 94 572 L 91 572 L 90 573 L 87 573 L 86 574 L 83 574 L 82 575 L 79 575 L 78 576 L 75 576 L 74 577 L 71 577 L 70 578 L 67 578 L 66 579 L 63 579 L 62 580 L 59 580 L 58 581 L 55 581 L 54 582 L 51 582 L 50 583 L 47 583 L 46 584 L 43 584 L 42 585 L 39 585 L 38 586 L 35 586 L 34 587 L 31 587 L 30 588 L 26 588 L 25 589 L 22 589 L 21 590 L 18 590 L 17 591 L 14 591 L 13 592 L 10 592 L 9 593 L 6 593 L 5 594 L 4 594 L 3 595 L 3 599 L 5 601 L 5 602 L 6 603 L 6 604 L 8 606 L 8 607 L 9 608 L 9 609 L 11 611 L 11 612 L 12 613 L 12 614 L 14 616 L 14 617 L 15 618 L 15 619 L 17 621 L 17 622 L 18 623 L 18 624 L 19 625 L 19 626 L 21 628 L 21 629 L 22 630 L 22 631 L 24 633 L 24 634 L 25 635 L 25 636 L 27 638 L 27 639 L 28 640 L 28 641 L 30 643 L 33 643 L 55 621 L 55 620 L 79 596 L 79 595 L 101 573 L 101 572 L 102 571 L 102 570 Z M 173 569 L 172 570 L 172 571 L 173 572 L 173 574 L 175 576 L 175 577 L 176 578 L 176 579 L 178 581 L 178 582 L 179 583 L 179 584 L 181 586 L 181 587 L 182 588 L 182 589 L 184 591 L 184 592 L 185 593 L 185 594 L 187 596 L 187 597 L 188 598 L 188 599 L 190 601 L 190 602 L 191 603 L 191 604 L 193 606 L 193 607 L 194 608 L 194 609 L 196 611 L 196 612 L 197 613 L 197 614 L 199 616 L 199 617 L 200 618 L 200 619 L 202 621 L 202 622 L 203 623 L 203 624 L 205 626 L 205 627 L 206 628 L 206 629 L 208 631 L 208 632 L 209 633 L 209 634 L 211 636 L 211 637 L 212 638 L 212 639 L 214 641 L 214 642 L 215 643 L 215 644 L 217 646 L 217 647 L 218 648 L 218 649 L 219 650 L 219 651 L 221 653 L 221 654 L 222 655 L 222 656 L 224 658 L 224 659 L 225 660 L 225 661 L 227 663 L 227 664 L 228 665 L 228 666 L 230 668 L 230 669 L 231 670 L 231 671 L 233 673 L 233 674 L 234 675 L 234 676 L 236 678 L 236 679 L 237 680 L 237 681 L 239 683 L 239 684 L 240 685 L 240 686 L 242 688 L 242 689 L 243 690 L 243 691 L 245 693 L 245 694 L 246 695 L 246 696 L 248 698 L 248 699 L 249 700 L 249 701 L 251 703 L 251 704 L 252 705 L 252 706 L 254 708 L 254 709 L 255 710 L 255 711 L 257 713 L 257 714 L 258 715 L 258 716 L 260 718 L 260 719 L 261 720 L 261 721 L 263 723 L 263 724 L 264 725 L 264 726 L 266 728 L 268 728 L 269 729 L 271 729 L 272 728 L 274 728 L 282 720 L 282 719 L 292 709 L 292 708 L 303 697 L 303 696 L 313 686 L 313 685 L 323 675 L 323 674 L 333 664 L 333 663 L 336 660 L 336 659 L 337 658 L 337 653 L 336 652 L 336 651 L 335 651 L 333 649 L 332 649 L 331 648 L 330 648 L 329 647 L 328 647 L 327 646 L 326 646 L 325 645 L 324 645 L 323 644 L 322 644 L 321 643 L 320 643 L 319 642 L 318 642 L 317 641 L 316 641 L 315 640 L 314 640 L 313 639 L 312 639 L 311 638 L 310 638 L 309 637 L 308 637 L 307 636 L 306 636 L 305 635 L 304 635 L 303 634 L 302 634 L 301 633 L 300 633 L 299 632 L 298 632 L 297 631 L 296 631 L 295 630 L 294 630 L 293 629 L 292 629 L 291 628 L 290 628 L 289 627 L 288 627 L 286 625 L 285 625 L 284 624 L 283 624 L 282 623 L 281 623 L 280 622 L 279 622 L 278 621 L 277 621 L 276 620 L 275 620 L 274 619 L 273 619 L 272 618 L 271 618 L 270 617 L 269 617 L 268 616 L 267 616 L 266 615 L 265 615 L 264 614 L 263 614 L 262 613 L 261 613 L 260 612 L 259 612 L 258 611 L 257 611 L 256 610 L 255 610 L 254 609 L 253 609 L 252 608 L 251 608 L 250 607 L 249 607 L 248 606 L 247 606 L 246 605 L 245 605 L 244 604 L 243 604 L 242 603 L 241 603 L 240 602 L 239 602 L 238 601 L 237 601 L 236 600 L 235 600 L 234 599 L 233 599 L 232 598 L 231 598 L 230 597 L 229 597 L 228 596 L 227 596 L 226 595 L 225 595 L 224 594 L 223 594 L 222 593 L 221 593 L 220 592 L 219 592 L 218 591 L 217 591 L 216 590 L 215 590 L 214 589 L 213 589 L 212 588 L 211 588 L 210 587 L 209 587 L 208 586 L 207 586 L 206 585 L 205 585 L 204 584 L 203 584 L 202 583 L 201 583 L 200 582 L 199 582 L 198 581 L 197 581 L 196 580 L 195 580 L 194 579 L 193 579 L 192 578 L 191 578 L 190 577 L 189 577 L 188 576 L 187 576 L 186 575 L 185 575 L 184 574 L 183 574 L 182 573 L 181 573 L 180 572 L 179 572 L 178 571 L 177 571 L 176 570 L 175 570 L 174 569 Z M 412 521 L 411 522 L 405 522 L 404 523 L 397 523 L 396 524 L 388 524 L 387 525 L 380 525 L 379 526 L 372 526 L 371 527 L 363 527 L 362 528 L 355 528 L 354 529 L 347 529 L 346 530 L 338 530 L 337 531 L 330 531 L 329 532 L 322 532 L 321 533 L 313 533 L 312 534 L 305 534 L 304 535 L 297 535 L 296 536 L 288 536 L 287 537 L 280 537 L 279 538 L 272 538 L 271 539 L 264 539 L 263 540 L 255 540 L 254 541 L 247 541 L 246 542 L 239 542 L 238 543 L 230 543 L 229 544 L 222 544 L 221 545 L 214 545 L 213 546 L 205 546 L 204 547 L 197 547 L 196 548 L 193 548 L 192 549 L 192 551 L 194 553 L 195 553 L 196 554 L 197 554 L 198 555 L 199 555 L 200 556 L 201 556 L 202 557 L 203 557 L 204 558 L 205 558 L 206 559 L 207 559 L 208 560 L 210 560 L 211 561 L 212 561 L 213 562 L 214 562 L 215 563 L 216 563 L 217 564 L 218 564 L 219 565 L 220 565 L 221 566 L 222 566 L 223 567 L 224 567 L 225 568 L 226 568 L 227 569 L 228 569 L 229 570 L 230 570 L 231 571 L 233 571 L 234 572 L 235 572 L 236 573 L 237 573 L 238 574 L 239 574 L 240 575 L 241 575 L 242 576 L 243 576 L 244 577 L 245 577 L 246 578 L 247 578 L 248 579 L 249 579 L 250 580 L 251 580 L 252 581 L 254 581 L 255 582 L 256 582 L 257 583 L 258 583 L 259 584 L 260 584 L 261 585 L 262 585 L 263 586 L 264 586 L 265 587 L 266 587 L 267 588 L 268 588 L 269 589 L 270 589 L 271 590 L 272 590 L 273 591 L 274 591 L 275 592 L 277 592 L 278 593 L 279 593 L 280 594 L 281 594 L 282 595 L 283 595 L 284 596 L 285 596 L 286 597 L 287 597 L 288 598 L 289 598 L 290 599 L 291 599 L 292 600 L 293 600 L 294 601 L 295 601 L 296 602 L 297 602 L 298 603 L 300 603 L 301 604 L 302 604 L 303 605 L 304 605 L 305 606 L 306 606 L 307 607 L 308 607 L 309 608 L 310 608 L 311 609 L 312 609 L 313 610 L 314 610 L 315 611 L 316 611 L 317 612 L 318 612 L 319 613 L 320 613 L 321 614 L 323 614 L 324 615 L 325 615 L 326 616 L 327 616 L 328 617 L 329 617 L 330 618 L 331 618 L 332 619 L 333 619 L 334 620 L 335 620 L 336 621 L 337 621 L 338 622 L 339 622 L 340 623 L 341 623 L 342 624 L 343 624 L 344 625 L 346 625 L 347 626 L 348 626 L 349 627 L 350 627 L 351 628 L 352 628 L 353 629 L 354 629 L 355 630 L 356 630 L 357 631 L 358 631 L 359 632 L 360 632 L 361 633 L 362 633 L 363 634 L 364 634 L 365 635 L 367 635 L 368 636 L 369 636 L 370 637 L 371 637 L 372 638 L 373 638 L 374 639 L 375 639 L 376 640 L 377 640 L 378 641 L 379 641 L 380 642 L 381 642 L 382 643 L 383 643 L 384 644 L 385 644 L 386 645 L 387 645 L 388 646 L 390 646 L 391 647 L 392 647 L 393 648 L 396 648 L 397 649 L 398 648 L 400 648 L 401 647 L 402 647 L 404 645 L 404 644 L 405 643 L 405 640 L 406 639 L 406 634 L 407 633 L 407 627 L 408 626 L 408 621 L 409 620 L 409 614 L 410 613 L 410 608 L 411 607 L 411 601 L 412 600 L 412 594 L 413 593 L 413 588 L 414 587 L 414 582 L 415 581 L 415 575 L 416 574 L 416 569 L 417 568 L 417 562 L 418 561 L 418 556 L 419 555 L 419 549 L 420 548 L 420 543 L 421 542 L 421 536 L 422 535 L 422 528 L 421 527 L 421 526 L 420 525 L 420 524 L 419 523 L 418 523 L 417 522 L 414 522 L 413 521 Z M 26 501 L 25 502 L 25 506 L 24 507 L 24 511 L 23 512 L 23 517 L 22 518 L 22 523 L 21 524 L 21 529 L 20 530 L 20 535 L 19 536 L 19 542 L 20 543 L 24 543 L 25 542 L 34 542 L 35 541 L 44 541 L 45 540 L 54 540 L 55 539 L 65 539 L 66 538 L 75 538 L 76 537 L 85 537 L 86 536 L 94 536 L 95 535 L 96 535 L 95 534 L 94 534 L 93 533 L 92 533 L 91 532 L 90 532 L 89 531 L 88 531 L 87 530 L 86 530 L 85 529 L 84 529 L 83 528 L 82 528 L 81 527 L 80 527 L 79 526 L 78 526 L 77 525 L 76 525 L 75 524 L 74 524 L 73 523 L 72 523 L 71 522 L 70 522 L 69 521 L 68 521 L 67 520 L 66 520 L 65 519 L 64 519 L 63 518 L 62 518 L 61 517 L 60 517 L 59 516 L 58 516 L 57 515 L 56 515 L 55 514 L 54 514 L 53 513 L 52 513 L 51 512 L 50 512 L 49 511 L 48 511 L 47 510 L 46 510 L 45 509 L 44 509 L 43 508 L 42 508 L 41 507 L 40 507 L 39 506 L 38 506 L 37 505 L 36 505 L 35 504 L 34 504 L 33 503 L 32 503 L 31 502 L 30 502 L 29 501 Z M 56 449 L 55 450 L 55 451 L 54 452 L 54 453 L 53 454 L 53 455 L 52 456 L 52 457 L 51 458 L 51 459 L 49 461 L 49 462 L 48 463 L 48 464 L 47 465 L 47 466 L 45 468 L 45 469 L 44 470 L 44 471 L 43 472 L 43 473 L 42 474 L 42 475 L 41 476 L 41 478 L 42 479 L 45 479 L 46 480 L 49 480 L 50 481 L 53 481 L 54 482 L 57 482 L 58 483 L 61 483 L 62 484 L 66 484 L 67 485 L 70 485 L 71 486 L 74 486 L 75 487 L 78 487 L 79 488 L 82 488 L 83 489 L 86 489 L 87 490 L 90 490 L 91 491 L 94 491 L 95 492 L 99 492 L 100 493 L 101 493 L 101 492 L 80 471 L 80 470 L 59 449 Z M 414 329 L 413 330 L 411 330 L 410 331 L 409 331 L 408 332 L 407 332 L 402 337 L 401 337 L 396 342 L 395 342 L 390 347 L 389 347 L 384 352 L 383 352 L 378 357 L 377 357 L 372 362 L 371 362 L 366 367 L 365 367 L 360 372 L 359 372 L 354 377 L 353 377 L 349 381 L 348 381 L 343 386 L 342 386 L 337 391 L 336 391 L 331 396 L 330 396 L 325 401 L 324 401 L 319 406 L 318 406 L 313 411 L 312 411 L 307 416 L 306 416 L 301 421 L 300 421 L 295 426 L 294 426 L 289 431 L 288 431 L 283 436 L 282 436 L 277 441 L 276 441 L 271 446 L 270 446 L 265 451 L 264 451 L 260 455 L 259 455 L 254 460 L 253 460 L 248 465 L 247 465 L 242 470 L 241 470 L 236 475 L 235 475 L 230 480 L 229 480 L 224 485 L 223 485 L 218 490 L 217 490 L 212 495 L 211 495 L 206 500 L 205 500 L 200 505 L 199 505 L 192 512 L 192 515 L 193 516 L 201 516 L 202 515 L 209 515 L 210 514 L 216 514 L 217 513 L 224 513 L 225 512 L 232 512 L 233 511 L 240 511 L 241 510 L 247 510 L 248 509 L 255 509 L 256 508 L 263 508 L 264 507 L 271 507 L 272 506 L 278 506 L 279 505 L 286 505 L 287 504 L 294 504 L 295 503 L 301 503 L 302 502 L 309 502 L 310 501 L 317 501 L 318 500 L 325 500 L 326 499 L 332 499 L 333 498 L 340 498 L 341 497 L 348 497 L 349 496 L 356 496 L 357 495 L 363 495 L 364 494 L 371 494 L 372 493 L 379 493 L 380 492 L 386 492 L 387 491 L 394 491 L 395 490 L 402 490 L 403 489 L 410 489 L 411 488 L 417 488 L 418 487 L 425 487 L 426 486 L 433 486 L 434 485 L 441 485 L 442 484 L 448 484 L 449 483 L 456 483 L 457 482 L 464 482 L 465 481 L 472 481 L 473 480 L 477 480 L 478 479 L 479 479 L 481 477 L 482 477 L 482 476 L 484 474 L 484 470 L 485 469 L 484 468 L 484 464 L 483 463 L 483 462 L 482 461 L 482 460 L 481 459 L 481 458 L 480 457 L 480 455 L 479 454 L 479 453 L 478 452 L 478 451 L 477 450 L 477 449 L 476 448 L 476 446 L 475 445 L 475 444 L 474 443 L 474 442 L 473 441 L 473 440 L 472 439 L 472 438 L 471 437 L 471 435 L 470 434 L 470 433 L 469 432 L 469 431 L 468 430 L 468 429 L 467 428 L 467 426 L 466 425 L 466 424 L 465 423 L 465 422 L 464 421 L 464 420 L 463 419 L 463 418 L 462 417 L 462 415 L 461 414 L 461 413 L 460 412 L 460 411 L 459 410 L 459 409 L 458 408 L 458 407 L 457 406 L 457 404 L 456 403 L 456 402 L 455 401 L 455 400 L 454 399 L 454 397 L 453 396 L 453 395 L 452 394 L 452 393 L 451 392 L 451 391 L 450 390 L 450 389 L 449 388 L 449 386 L 448 385 L 448 384 L 447 383 L 447 382 L 446 381 L 446 380 L 445 379 L 445 377 L 444 376 L 444 375 L 443 374 L 443 373 L 442 372 L 442 371 L 441 370 L 441 368 L 440 367 L 440 366 L 439 365 L 439 364 L 438 363 L 438 362 L 437 361 L 437 360 L 436 359 L 436 357 L 435 356 L 435 355 L 434 354 L 434 353 L 433 352 L 433 351 L 432 350 L 432 348 L 431 347 L 431 346 L 430 345 L 430 344 L 429 343 L 429 342 L 428 341 L 428 339 L 427 338 L 427 337 L 426 336 L 426 335 L 422 331 L 421 331 L 420 330 L 418 330 L 417 329 Z M 289 115 L 288 116 L 284 116 L 283 117 L 282 117 L 281 118 L 280 118 L 277 121 L 277 122 L 276 123 L 276 124 L 275 125 L 275 126 L 274 127 L 274 130 L 273 131 L 273 133 L 272 134 L 272 136 L 271 137 L 271 140 L 270 141 L 270 143 L 269 144 L 269 146 L 268 147 L 268 150 L 267 151 L 267 153 L 266 154 L 266 156 L 265 157 L 265 160 L 264 161 L 264 163 L 263 164 L 263 166 L 262 167 L 262 170 L 261 171 L 261 173 L 260 174 L 260 176 L 259 177 L 259 180 L 258 181 L 258 183 L 257 184 L 257 186 L 256 187 L 256 190 L 255 191 L 255 193 L 254 194 L 254 196 L 253 197 L 253 200 L 252 201 L 252 203 L 251 204 L 251 206 L 250 207 L 250 210 L 249 211 L 249 213 L 248 214 L 248 216 L 247 217 L 247 220 L 246 221 L 246 223 L 245 224 L 245 226 L 244 227 L 244 230 L 243 231 L 243 233 L 242 234 L 242 236 L 241 237 L 241 240 L 240 241 L 240 243 L 239 244 L 239 246 L 238 247 L 238 250 L 237 251 L 237 253 L 236 254 L 236 256 L 235 257 L 235 260 L 234 261 L 234 263 L 233 264 L 233 266 L 232 267 L 232 270 L 231 271 L 231 273 L 230 274 L 230 276 L 229 277 L 229 280 L 228 281 L 228 283 L 227 284 L 227 286 L 226 287 L 226 290 L 225 291 L 225 293 L 224 294 L 224 296 L 223 297 L 223 300 L 222 301 L 222 303 L 221 304 L 221 306 L 220 307 L 220 310 L 219 311 L 219 313 L 218 314 L 218 316 L 217 317 L 217 320 L 216 321 L 216 323 L 215 324 L 215 326 L 214 327 L 214 330 L 213 331 L 213 333 L 212 334 L 212 336 L 211 337 L 211 340 L 210 341 L 210 343 L 209 344 L 209 346 L 208 347 L 208 350 L 207 351 L 207 353 L 206 354 L 206 356 L 205 357 L 205 360 L 204 361 L 204 363 L 203 364 L 203 366 L 202 367 L 202 370 L 201 371 L 201 373 L 200 374 L 200 376 L 199 377 L 199 380 L 198 381 L 198 383 L 197 384 L 197 386 L 196 387 L 196 390 L 195 391 L 195 393 L 194 394 L 194 396 L 193 397 L 193 400 L 192 401 L 192 403 L 191 404 L 191 406 L 190 407 L 190 410 L 189 411 L 189 413 L 188 414 L 188 416 L 187 417 L 187 420 L 186 421 L 186 423 L 185 424 L 185 426 L 184 427 L 184 430 L 183 431 L 183 433 L 182 434 L 182 436 L 181 437 L 181 440 L 180 441 L 180 443 L 179 444 L 179 446 L 178 447 L 178 450 L 177 451 L 177 453 L 176 454 L 176 456 L 175 457 L 175 460 L 174 461 L 174 463 L 173 464 L 173 466 L 172 467 L 172 470 L 171 471 L 171 478 L 172 479 L 176 479 L 177 478 L 178 478 L 181 475 L 182 475 L 188 469 L 189 469 L 196 462 L 197 462 L 203 456 L 204 456 L 211 449 L 212 449 L 218 443 L 219 443 L 226 436 L 227 436 L 233 430 L 234 430 L 241 423 L 242 423 L 248 417 L 249 417 L 255 411 L 256 411 L 263 404 L 264 404 L 270 398 L 271 398 L 278 391 L 279 391 L 285 385 L 286 385 L 293 378 L 294 378 L 300 372 L 301 372 L 308 365 L 309 365 L 315 359 L 316 359 L 323 352 L 324 352 L 330 346 L 331 346 L 338 339 L 339 339 L 345 333 L 346 333 L 353 326 L 354 326 L 360 320 L 361 320 L 368 313 L 369 313 L 375 307 L 376 307 L 382 301 L 383 301 L 390 294 L 391 294 L 397 288 L 398 288 L 405 281 L 406 281 L 412 275 L 413 275 L 420 268 L 421 268 L 427 262 L 428 262 L 435 255 L 436 255 L 442 249 L 443 249 L 450 242 L 451 242 L 455 238 L 455 237 L 457 235 L 457 234 L 458 233 L 458 229 L 459 228 L 458 227 L 458 223 L 457 222 L 457 221 L 456 220 L 456 219 L 453 216 L 452 216 L 450 214 L 449 214 L 447 212 L 446 212 L 444 210 L 443 210 L 441 208 L 440 208 L 439 207 L 438 207 L 436 205 L 435 205 L 433 203 L 432 203 L 430 201 L 429 201 L 428 200 L 427 200 L 425 198 L 424 198 L 422 196 L 421 196 L 419 194 L 418 194 L 417 193 L 416 193 L 414 191 L 413 191 L 411 189 L 410 189 L 408 187 L 407 187 L 406 186 L 405 186 L 403 184 L 402 184 L 400 182 L 399 182 L 397 180 L 396 180 L 395 179 L 394 179 L 393 178 L 392 178 L 390 176 L 389 176 L 387 174 L 386 174 L 384 172 L 383 172 L 381 170 L 380 170 L 379 169 L 378 169 L 376 167 L 375 167 L 373 165 L 372 165 L 371 164 L 370 164 L 368 162 L 367 162 L 365 160 L 364 160 L 363 159 L 362 159 L 360 157 L 359 157 L 357 155 L 356 155 L 354 153 L 353 153 L 352 152 L 351 152 L 349 150 L 348 150 L 346 148 L 345 148 L 343 146 L 342 146 L 341 145 L 340 145 L 338 143 L 337 143 L 335 141 L 334 141 L 332 139 L 331 139 L 330 138 L 329 138 L 327 136 L 326 136 L 324 134 L 323 134 L 322 133 L 321 133 L 319 131 L 318 131 L 316 129 L 315 129 L 313 127 L 312 127 L 311 126 L 310 126 L 308 124 L 307 124 L 305 122 L 304 122 L 302 120 L 301 120 L 300 119 L 299 119 L 297 117 L 295 117 L 294 116 L 290 116 Z M 18 0 L 17 1 L 13 1 L 12 2 L 11 2 L 10 3 L 9 3 L 8 4 L 7 4 L 3 8 L 3 9 L 2 10 L 2 11 L 1 12 L 1 14 L 0 15 L 0 25 L 1 26 L 1 29 L 2 30 L 2 32 L 3 33 L 3 36 L 4 37 L 4 40 L 5 41 L 5 43 L 6 44 L 6 47 L 7 48 L 7 50 L 8 51 L 8 54 L 9 55 L 9 57 L 10 58 L 10 61 L 11 62 L 11 65 L 12 66 L 12 68 L 13 69 L 13 72 L 14 73 L 14 75 L 15 76 L 15 79 L 16 80 L 16 83 L 17 84 L 17 86 L 18 87 L 18 90 L 19 91 L 19 93 L 20 94 L 20 97 L 21 98 L 21 100 L 22 101 L 22 104 L 23 105 L 23 108 L 24 109 L 24 111 L 25 112 L 25 115 L 26 116 L 26 118 L 27 119 L 27 122 L 28 123 L 28 125 L 29 126 L 29 129 L 30 130 L 30 133 L 31 134 L 31 136 L 32 137 L 32 140 L 33 141 L 33 143 L 34 144 L 34 147 L 35 148 L 35 150 L 36 151 L 36 154 L 37 155 L 37 158 L 38 159 L 38 161 L 39 162 L 39 165 L 40 166 L 40 168 L 41 169 L 41 172 L 42 173 L 42 175 L 43 176 L 43 179 L 44 180 L 44 183 L 45 184 L 45 186 L 46 187 L 46 190 L 47 191 L 47 193 L 48 194 L 48 197 L 49 198 L 49 201 L 50 202 L 50 204 L 51 205 L 51 208 L 52 209 L 52 211 L 53 212 L 53 215 L 54 216 L 54 218 L 55 219 L 55 222 L 56 223 L 56 226 L 57 227 L 57 229 L 58 230 L 58 233 L 59 234 L 59 236 L 60 237 L 60 240 L 61 241 L 61 243 L 62 244 L 62 247 L 63 248 L 63 251 L 64 252 L 64 254 L 65 255 L 65 258 L 66 259 L 66 261 L 67 262 L 67 265 L 68 266 L 68 268 L 69 269 L 69 272 L 70 273 L 70 276 L 71 277 L 71 279 L 72 280 L 72 283 L 73 284 L 73 286 L 74 287 L 74 290 L 75 291 L 75 294 L 76 295 L 76 297 L 77 298 L 77 301 L 78 302 L 78 304 L 79 305 L 79 308 L 80 309 L 80 311 L 81 312 L 81 315 L 82 316 L 82 319 L 83 320 L 83 322 L 84 323 L 84 326 L 85 327 L 85 329 L 86 330 L 86 333 L 87 334 L 87 336 L 88 337 L 88 340 L 89 341 L 89 344 L 90 345 L 90 347 L 91 348 L 91 351 L 92 352 L 92 354 L 93 355 L 93 358 L 94 359 L 94 361 L 95 362 L 95 365 L 96 366 L 96 369 L 97 370 L 97 372 L 98 373 L 98 376 L 99 377 L 99 379 L 100 380 L 100 383 L 101 384 L 101 386 L 102 387 L 102 390 L 103 391 L 103 394 L 104 395 L 104 397 L 105 398 L 105 401 L 106 402 L 106 404 L 107 405 L 107 408 L 108 409 L 108 412 L 109 413 L 109 415 L 110 416 L 110 419 L 111 420 L 111 422 L 112 423 L 112 426 L 113 427 L 113 429 L 114 430 L 114 433 L 115 434 L 115 437 L 116 438 L 116 440 L 117 441 L 117 444 L 118 445 L 118 447 L 119 448 L 119 451 L 120 452 L 120 454 L 121 455 L 121 458 L 122 459 L 122 461 L 123 462 L 123 463 L 124 464 L 124 465 L 127 468 L 129 468 L 130 467 L 131 467 L 132 466 L 132 465 L 133 464 L 133 463 L 134 462 L 134 461 L 135 460 L 135 458 L 136 457 L 136 455 L 137 454 L 137 451 L 138 450 L 138 448 L 139 447 L 139 445 L 140 444 L 140 441 L 141 440 L 141 438 L 142 437 L 142 435 L 143 434 L 143 432 L 144 431 L 144 428 L 145 427 L 145 425 L 146 424 L 146 422 L 147 421 L 147 418 L 148 417 L 148 415 L 149 414 L 149 412 L 150 411 L 150 408 L 151 407 L 151 405 L 152 404 L 152 402 L 153 401 L 153 398 L 154 397 L 154 395 L 155 394 L 155 392 L 156 391 L 156 388 L 157 387 L 157 385 L 158 384 L 158 382 L 159 381 L 159 378 L 160 377 L 160 375 L 161 374 L 161 372 L 162 371 L 162 369 L 163 368 L 163 365 L 164 364 L 164 362 L 165 361 L 165 359 L 166 358 L 166 355 L 167 354 L 167 352 L 168 351 L 168 349 L 169 348 L 169 345 L 170 344 L 170 342 L 171 341 L 171 339 L 172 338 L 172 335 L 173 334 L 173 332 L 174 331 L 174 329 L 175 328 L 175 325 L 176 324 L 176 322 L 177 321 L 177 319 L 178 318 L 178 315 L 179 314 L 179 312 L 180 311 L 180 309 L 181 308 L 181 306 L 182 305 L 182 302 L 183 301 L 183 299 L 184 298 L 184 296 L 185 295 L 185 292 L 186 291 L 186 289 L 187 288 L 187 286 L 188 285 L 188 282 L 189 281 L 189 279 L 190 278 L 190 276 L 191 275 L 191 272 L 192 271 L 192 269 L 193 268 L 193 266 L 194 265 L 194 262 L 195 261 L 195 259 L 196 258 L 196 256 L 197 255 L 197 252 L 198 251 L 198 249 L 199 248 L 199 246 L 200 245 L 200 243 L 201 242 L 201 239 L 202 238 L 202 236 L 203 235 L 203 233 L 204 232 L 204 229 L 205 228 L 205 226 L 206 225 L 206 223 L 207 222 L 207 219 L 208 218 L 208 216 L 209 215 L 209 213 L 210 212 L 210 209 L 211 208 L 211 206 L 212 205 L 212 203 L 213 202 L 213 199 L 214 198 L 214 196 L 215 195 L 215 193 L 216 192 L 216 189 L 217 188 L 217 186 L 218 185 L 218 183 L 219 182 L 219 180 L 220 179 L 220 176 L 221 175 L 221 173 L 222 172 L 222 170 L 223 169 L 223 166 L 224 165 L 224 163 L 225 162 L 225 160 L 226 159 L 226 156 L 227 155 L 227 153 L 228 152 L 228 150 L 229 149 L 229 146 L 230 145 L 230 143 L 231 142 L 231 140 L 232 139 L 232 136 L 233 135 L 233 133 L 234 132 L 234 130 L 235 129 L 235 126 L 236 125 L 236 123 L 237 122 L 237 120 L 238 119 L 238 117 L 239 116 L 239 113 L 240 112 L 240 110 L 241 109 L 241 107 L 242 106 L 242 103 L 243 102 L 243 100 L 244 99 L 244 97 L 245 96 L 245 93 L 246 92 L 246 90 L 247 89 L 247 87 L 248 86 L 248 83 L 249 82 L 249 80 L 250 79 L 250 77 L 251 76 L 251 73 L 252 72 L 252 70 L 253 69 L 253 67 L 254 66 L 254 63 L 255 62 L 255 60 L 256 59 L 256 57 L 257 56 L 257 54 L 258 53 L 258 50 L 259 49 L 259 47 L 260 46 L 260 44 L 261 43 L 261 40 L 262 39 L 262 37 L 263 36 L 263 34 L 264 33 L 264 30 L 265 29 L 265 27 L 266 26 L 266 13 L 265 12 L 265 11 L 264 10 L 264 9 L 262 7 L 262 6 L 261 6 L 258 3 L 257 3 L 256 2 L 255 2 L 254 1 L 250 1 L 249 0 Z" fill="#ED1C24" fill-rule="evenodd" transform="translate(642,120) scale(1.0)"/>
</svg>